<svg xmlns="http://www.w3.org/2000/svg" width="235.111" height="218.352" viewBox="0 0 235.111 218.352">
  <defs>
    <style>
      .cls-1 {
        fill: #f5f5f5;
      }

      .cls-2 {
        fill: #ebebeb;
      }

      .cls-3 {
        fill: #1f9c70;
      }

      .cls-13, .cls-4 {
        opacity: 0.2;
      }

      .cls-11, .cls-13, .cls-5 {
        fill: #fff;
      }

      .cls-6 {
        fill: #e0e0e0;
      }

      .cls-7 {
        fill: #f0f0f0;
      }

      .cls-8 {
        fill: #455a64;
      }

      .cls-9 {
        fill: #37474f;
      }

      .cls-10 {
        fill: #263238;
      }

      .cls-11 {
        opacity: 0.7;
      }

      .cls-12 {
        opacity: 0.1;
      }

      .cls-14 {
        fill: #ffa8a7;
      }

      .cls-15 {
        fill: #f28f8f;
      }

      .cls-16 {
        opacity: 0.3;
      }
    </style>
  </defs>
  <g id="Mobile_login-amico" data-name="Mobile login-amico" transform="translate(-73.551 -86.13)">
    <g id="freepik--Floor--inject-3" transform="translate(73.551 192.427)">
      <path id="Path_10939" data-name="Path 10939" class="cls-1" d="M107.981,341.324c45.91,21.879,120.341,21.886,166.251,0s45.9-57.356,0-79.235-120.341-21.879-166.251,0S62.078,319.445,107.981,341.324Z" transform="translate(-73.551 -245.68)"/>
    </g>
    <g id="freepik--Shadow--inject-3" transform="translate(258.762 257.311)">
      <ellipse id="Ellipse_221" data-name="Ellipse 221" class="cls-2" cx="15.31" cy="7.295" rx="15.31" ry="7.295" transform="translate(0 0)"/>
    </g>
    <g id="freepik--Plants--inject-3" transform="translate(89.984 176.149)">
      <path id="Path_10940" data-name="Path 10940" class="cls-3" d="M120,343.743l5.416-3.125a21.679,21.679,0,0,0,6.662-9.374c1.672-4.61,1.439-8.115.24-9.874-1.472-2.165-5.29-1.785-5.443,2.772C126.556,333.123,123.937,339.352,120,343.743Z" transform="translate(-105.487 -254.239)"/>
      <path id="Path_10941" data-name="Path 10941" class="cls-4" d="M120,343.743l5.416-3.125a21.679,21.679,0,0,0,6.662-9.374c1.672-4.61,1.439-8.115.24-9.874-1.472-2.165-5.29-1.785-5.443,2.772C126.556,333.123,123.937,339.352,120,343.743Z" transform="translate(-105.487 -254.239)"/>
      <path id="Path_10942" data-name="Path 10942" class="cls-5" d="M119.835,345.13a.333.333,0,0,1-.187-.606c12.525-8.661,10.1-20.74,10.073-20.86a.34.34,0,0,1,.666-.14c0,.127,2.558,12.618-10.34,21.546a.346.346,0,0,1-.213.06Z" transform="translate(-105.322 -255.294)"/>
      <path id="Path_10943" data-name="Path 10943" class="cls-3" d="M101.876,348.23a4.021,4.021,0,0,1-1.432-3.611c.453-2.079,1.672-3.571-.413-6.249s-2.665-6.249-.173-8.181c1.9-1.5,4.863.62,5.929-3.331.786-2.891.52-9.294,4.2-11.426s6,1.079,5.416,5.423c-.506,3.884-1.226,7.622-.666,8.661,1.079,2,2.925,1.725,2.838,5.376-.073,3.4-3.291,6.209-3.291,6.209Z" transform="translate(-98.216 -252.457)"/>
      <path id="Path_10944" data-name="Path 10944" class="cls-5" d="M112.721,347.038a.34.34,0,0,1-.333-.293c-.953-7.895,1.332-21.526,3.2-25.577a.333.333,0,0,1,.466-.187.326.326,0,0,1,.16.44c-1.845,4-4.051,17.668-3.138,25.217a.333.333,0,0,1-.293.366Z" transform="translate(-102.872 -254.523)"/>
      <path id="Path_10945" data-name="Path 10945" class="cls-5" d="M110.722,347.965a.28.28,0,0,1-.147-.033c-2.312-1.126-3.778-5.143-3.837-5.33a.333.333,0,1,1,.626-.227c0,.04,1.432,3.931,3.5,4.937a.333.333,0,0,1-.147.633Z" transform="translate(-101.053 -261.6)"/>
      <path id="Path_10946" data-name="Path 10946" class="cls-5" d="M112.5,351.338a.327.327,0,0,1-.306-.213.333.333,0,0,1,.18-.433c3.891-1.559,6.316-6.189,6.342-6.243a.334.334,0,0,1,.593.306c-.107.2-2.565,4.9-6.662,6.556A.287.287,0,0,1,112.5,351.338Z" transform="translate(-102.875 -262.308)"/>
      <path id="Path_10947" data-name="Path 10947" class="cls-3" d="M315.176,286.576a24.018,24.018,0,0,1-3.2-9.84c-.286-5.123.839-7.255,2.385-7.868s1.666,1.273,2.458,2.385,2.412.48,3.011-2.991,2.785-9.327,7.329-10.466c5-1.239,2.318,4.624,1.059,6.909s-2.232,5.4-1.406,6.249,2.112-.72,3.331.733c1.486,1.752-3.131,8.061-5.783,9.587Z" transform="translate(-169.549 -233.389)"/>
      <path id="Path_10948" data-name="Path 10948" class="cls-5" d="M322.63,286.251h0a.333.333,0,0,1-.32-.346,47.968,47.968,0,0,1,7.462-23.185.326.326,0,0,1,.466-.073.333.333,0,0,1,.073.46,47.355,47.355,0,0,0-7.329,22.832.333.333,0,0,1-.353.313Z" transform="translate(-173.012 -235.042)"/>
      <path id="Path_10949" data-name="Path 10949" class="cls-5" d="M321.8,289.842a.353.353,0,0,1-.16-.04c-1.865-1.033-2.9-4.1-2.938-4.224a.331.331,0,1,1,.626-.213s1,2.951,2.665,3.851a.34.34,0,0,1,.127.453A.326.326,0,0,1,321.8,289.842Z" transform="translate(-171.801 -242.571)"/>
      <path id="Path_10950" data-name="Path 10950" class="cls-5" d="M323.685,286.879a.333.333,0,0,1-.32-.253.326.326,0,0,1,.24-.4c4.81-1.219,6.476-3.738,6.489-3.764a.335.335,0,0,1,.566.36c-.073.113-1.805,2.758-6.889,4.051Z" transform="translate(-173.361 -241.627)"/>
      <path id="Path_10951" data-name="Path 10951" class="cls-3" d="M195.783,264.081s-6.389-1.559-6.722-13.524c-.353-12.912,1.566-27.982-6-29.2S171.306,229.35,171.4,240.11c.087,9.42,3.884,29.874,24.357,33.884Z" transform="translate(-122.642 -221.247)"/>
      <path id="Path_10952" data-name="Path 10952" class="cls-4" d="M195.783,264.081s-6.389-1.559-6.722-13.524c-.353-12.912,1.566-27.982-6-29.2S171.306,229.35,171.4,240.11c.087,9.42,3.884,29.874,24.357,33.884Z" transform="translate(-122.642 -221.247)"/>
      <path id="Path_10953" data-name="Path 10953" class="cls-5" d="M199.438,274.923h-.06a16.732,16.732,0,0,1-11.146-7.535c-8.275-12.345-5.67-35.4-4.81-39.421a.34.34,0,0,1,.393-.26.346.346,0,0,1,.26.4c-.846,4-3.438,26.756,4.71,38.908a16.07,16.07,0,0,0,10.713,7.249.333.333,0,0,1,.267.393A.326.326,0,0,1,199.438,274.923Z" transform="translate(-126.297 -223.401)"/>
      <path id="Path_10954" data-name="Path 10954" class="cls-3" d="M188.191,314.747c-6.6.893-17.322.879-23.511-4s-4.9-9.074-2.518-10.826,4.444-3.751.353-7.642-10.66-10.14-12.792-19.514-1.079-15.237,3.1-17.189c4.057-1.892,5.13,1.119,7.615,7.328s8.075.886,12.858,2.825,4.59,5.776,4.89,9.074,1.879,4.211,4.59,4.211,5.41,1.559,5.41,4.664Z" transform="translate(-115.05 -232.519)"/>
      <path id="Path_10955" data-name="Path 10955" class="cls-5" d="M191.564,310.244a.2.2,0,0,1-.087,0c-.286-.08-7.115-2.065-17.062-11.2-10.593-9.727-15.59-24.317-15.643-24.464a.34.34,0,0,1,.213-.42.333.333,0,0,1,.42.207c.047.147,5,14.577,15.463,24.184,9.807,9.014,16.716,11.033,16.789,11.053a.333.333,0,0,1,.227.413.326.326,0,0,1-.32.227Z" transform="translate(-118.423 -238.902)"/>
      <path id="Path_10956" data-name="Path 10956" class="cls-5" d="M184.941,305.835a.32.32,0,0,1-.306-.213c-2.139-5.49-2.625-17.235-2.665-17.735a.34.34,0,0,1,.32-.346.353.353,0,0,1,.346.32c0,.12.5,12.132,2.6,17.522a.333.333,0,0,1-.193.433.346.346,0,0,1-.1.02Z" transform="translate(-126.171 -243.374)"/>
      <path id="Path_10957" data-name="Path 10957" class="cls-5" d="M185.281,325.312a15.735,15.735,0,0,1-1.839-.093.336.336,0,0,1,.08-.666c.06,0,6.263.706,9.107-2.192a.333.333,0,1,1,.473.466C191.044,324.952,187.453,325.312,185.281,325.312Z" transform="translate(-126.564 -254.956)"/>
    </g>
    <g id="freepik--Gear--inject-3" transform="translate(89.993 86.13)">
      <path id="Path_10958" data-name="Path 10958" class="cls-6" d="M166.036,133l-.72-4.151-3.7,2.438a5.137,5.137,0,0,0-1.406-1.712l1.772-4.8-3.331-.74-2.438,4.664a9.08,9.08,0,0,0-2.538.826l-1.059-3.518-3.957,3.111.26,4.131a22.231,22.231,0,0,0-2.185,2.891l-3.265-.167-2.292,5.137,2.8,1.2a16.444,16.444,0,0,0-.553,3.251l-3.564,3.278.713,4.157,3.711-2.438a5.036,5.036,0,0,0,1.406,1.706l-1.739,4.8,3.331.733,3.491-3.4c.806-.127.606-1.646,1.486-2.079l1.059,3.5,3.951-3.1-.1-1.626c.8-.893,3.824-2.858,4.477-3.884l.819-1.332,2.292-5.137-1.066-1.932-1.186-2.518Zm-12.092,13.664c-3.038,2.385-4,2.911-4.51-.28a12.453,12.453,0,0,1,4.264-10.433c3.038-2.392,4.2-2.558,4.744.626S156.989,144.307,153.944,146.665Z" transform="translate(-112.125 -98.783)"/>
      <path id="Path_10959" data-name="Path 10959" class="cls-1" d="M166.878,124.04l4.324,2.492-2.438,4.65-4.324-2.492Z" transform="translate(-120.329 -98.783)"/>
      <path id="Path_10960" data-name="Path 10960" class="cls-1" d="M180.538,133.752l-3.7,2.438L172.51,133.7l3.7-2.438Z" transform="translate(-123.022 -101.193)"/>
      <path id="Path_10961" data-name="Path 10961" class="cls-6" d="M180.1,150.984l-2.8-1.193L172.97,147.3l2.8,1.193Z" transform="translate(-123.176 -106.547)"/>
      <path id="Path_10962" data-name="Path 10962" class="cls-6" d="M145.99,171.213l4.324,2.485,1.772-4.8-4.324-2.492Z" transform="translate(-114.171 -112.925)"/>
      <path id="Path_10963" data-name="Path 10963" class="cls-6" d="M163.8,172.5,159.479,170l-1.059-3.5,4.324,2.492Z" transform="translate(-118.32 -112.955)"/>
      <path id="Path_10964" data-name="Path 10964" class="cls-2" d="M172.533,136.741l-.713-4.151-3.7,2.438a5.157,5.157,0,0,0-1.412-1.712l1.772-4.8-3.3-.74-2.445,4.664a9.081,9.081,0,0,0-2.538.826l-1.053-3.5-3.957,3.111.26,4.131a22.231,22.231,0,0,0-2.185,2.911l-3.271-.167-2.292,5.137,2.8,1.2a16.923,16.923,0,0,0-.553,3.258l-3.558,3.231.713,4.157,3.7-2.438A5.13,5.13,0,0,0,152.219,156l-1.772,4.8,3.331.74,2.438-4.664a8.868,8.868,0,0,0,2.545-.833l1.053,3.5,3.957-3.1-.26-4.131a22.233,22.233,0,0,0,2.185-2.891l3.271.16,2.292-5.137-2.845-1.193a16.528,16.528,0,0,0,.56-3.258Zm-12.079,13.691c-3.031,2.385-5.936,1.739-6.489-1.446s1.466-7.708,4.5-10.093,5.936-1.732,6.489,1.452S163.492,148.047,160.454,150.432Z" transform="translate(-114.304 -100.032)"/>
      <path id="Path_10965" data-name="Path 10965" class="cls-1" d="M161.381,129.492,157.057,127l-3.957,3.111,4.324,2.492Z" transform="translate(-116.544 -99.771)"/>
      <path id="Path_10966" data-name="Path 10966" class="cls-6" d="M153.1,131.67l.26,4.131,4.324,2.492-.26-4.131Z" transform="translate(-116.544 -101.33)"/>
      <path id="Path_10967" data-name="Path 10967" class="cls-1" d="M152.9,144.622l-4.324-2.492-3.265-.16,4.317,2.492Z" transform="translate(-113.944 -104.768)"/>
      <path id="Path_10968" data-name="Path 10968" class="cls-6" d="M144.162,141.97l-2.292,5.13,4.317,2.492,2.292-5.13Z" transform="translate(-112.796 -104.768)"/>
      <path id="Path_10969" data-name="Path 10969" class="cls-1" d="M147.781,158.842l-4.317-2.492-3.564,3.278,4.317,2.492Z" transform="translate(-112.138 -109.567)"/>
      <path id="Path_10970" data-name="Path 10970" class="cls-6" d="M144.937,167.919l-4.324-2.492-.713-4.157,4.317,2.492Z" transform="translate(-112.138 -111.21)"/>
      <path id="Path_10971" data-name="Path 10971" class="cls-1" d="M172.424,126.532,168.1,124.04l3.3.74,4.317,2.492Z" transform="translate(-121.551 -98.783)"/>
      <path id="Path_10972" data-name="Path 10972" class="cls-6" d="M132.781,101.507V95.3l-4.937,2.225a8.9,8.9,0,0,0-1.332-2.938l3.111-6.269-3.8-2.192-3.877,5.83a8.8,8.8,0,0,0-3.211.313l-.546-5.39-5.37,3.1-.54,6a26.435,26.435,0,0,0-3.211,3.4l-3.877-1.332-3.8,6.582,3.1,2.665a26.788,26.788,0,0,0-1.332,4.477l-4.937,3.471v6.209l4.937-2.225a8.9,8.9,0,0,0,1.332,2.938l-3.091,6.276,3.8,2.192,3.877-5.829a8.815,8.815,0,0,0,3.211-.313l.54,5.39,5.37-3.1.546-6a10.127,10.127,0,0,0,4.3-3.025l2.785.979,3.8-6.576-2.332-2a13.865,13.865,0,0,0,.553-5.15ZM115.505,117c-4.117,2.378-6.662.666-6.662-4.071s3.4-10.593,7.528-12.971,6.616-.666,6.616,4.111A16.5,16.5,0,0,1,115.505,117Z" transform="translate(-98.23 -86.13)"/>
      <path id="Path_10973" data-name="Path 10973" class="cls-1" d="M142.025,88.615l-4.317-2.485-3.877,5.83,4.317,2.492Z" transform="translate(-110.112 -86.13)"/>
      <path id="Path_10974" data-name="Path 10974" class="cls-1" d="M151.941,102.392,147.617,99.9l-4.937,2.225L147,104.617Z" transform="translate(-113.066 -90.726)"/>
      <path id="Path_10975" data-name="Path 10975" class="cls-6" d="M124.177,151.591,119.86,149.1l-.54-5.39,4.317,2.492Z" transform="translate(-105.269 -105.349)"/>
      <path id="Path_10976" data-name="Path 10976" class="cls-6" d="M102.97,146.5l4.324,2.492,3.111-6.269-4.324-2.492Z" transform="translate(-99.812 -104.187)"/>
      <path id="Path_10977" data-name="Path 10977" class="cls-2" d="M139.271,105.283v-6.2l-4.937,2.205A8.774,8.774,0,0,0,133,98.348l3.111-6.269-3.8-2.2-3.877,5.836a8.661,8.661,0,0,0-3.211.313l-.546-5.4-5.37,3.1-.546,6a26.9,26.9,0,0,0-3.211,3.4l-3.877-1.332-3.8,6.582,3.111,2.665a26.175,26.175,0,0,0-1.332,4.477l-4.937,3.471V125.2l4.937-2.225a8.767,8.767,0,0,0,1.332,2.938l-3.111,6.269,3.8,2.192,3.877-5.83a8.8,8.8,0,0,0,3.211-.313l.546,5.39,5.37-3.1.54-6a26.437,26.437,0,0,0,3.211-3.4l3.877,1.332,3.8-6.576-3.111-2.665a26.211,26.211,0,0,0,1.332-4.477ZM122,120.78c-4.124,2.378-7.468.446-7.468-4.311A16.481,16.481,0,0,1,122,103.538c4.137-2.385,7.462-.446,7.462,4.311a16.468,16.468,0,0,1-7.462,12.9Z" transform="translate(-100.396 -87.382)"/>
      <path id="Path_10978" data-name="Path 10978" class="cls-7" d="M112.557,105.359l4.317,2.492L113,106.5,108.68,104Z" transform="translate(-101.718 -92.094)"/>
      <rect id="Rectangle_2444" data-name="Rectangle 2444" class="cls-1" width="7.602" height="4.99" transform="translate(3.163 18.497) rotate(-60.02)"/>
      <path id="Path_10979" data-name="Path 10979" class="cls-6" d="M102.97,113.88l4.324,2.492,3.111,2.678-4.324-2.485Z" transform="translate(-99.812 -95.392)"/>
      <path id="Path_10980" data-name="Path 10980" class="cls-1" d="M103.167,124.63l4.324,2.492-4.937,3.471L98.23,128.1Z" transform="translate(-98.23 -98.98)"/>
      <path id="Path_10981" data-name="Path 10981" class="cls-6" d="M98.23,129.84l4.324,2.492v6.209l-4.324-2.492Z" transform="translate(-98.23 -100.719)"/>
      <path id="Path_10982" data-name="Path 10982" class="cls-1" d="M129.824,89.752,125.5,87.26l-5.37,3.1,4.317,2.492Z" transform="translate(-105.54 -86.507)"/>
    </g>
    <g id="freepik--Device--inject-3" transform="translate(161.114 86.153)">
      <path id="Path_10983" data-name="Path 10983" class="cls-6" d="M213.575,337.459,276.2,301.3a.706.706,0,0,0,0-1.332l-5.79-3.331a2.572,2.572,0,0,0-2.312,0l-62.646,36.13a.706.706,0,0,0,0,1.333l5.81,3.331A2.572,2.572,0,0,0,213.575,337.459Z" transform="translate(-204.982 -156.321)"/>
      <path id="Path_10984" data-name="Path 10984" class="cls-8" d="M279.564,94l-56.47,32.605a6.382,6.382,0,0,0-2.885,5V265.563c0,1.839,1.292,2.585,2.885,1.666l56.47-32.605a6.362,6.362,0,0,0,2.885-5V95.668C282.449,93.83,281.163,93.083,279.564,94Z" transform="translate(-210.064 -88.649)"/>
      <path id="Path_10985" data-name="Path 10985" class="cls-9" d="M219.45,124.123l56.47-32.605c1.426-.826,2.6-.313,2.845,1.119a6.449,6.449,0,0,0-2.845-4.45l-2.345-1.332a6.376,6.376,0,0,0-5.77,0l-56.476,32.579a5.936,5.936,0,0,0-2.039,2.152l8.121,4.664A5.829,5.829,0,0,1,219.45,124.123Z" transform="translate(-206.42 -86.164)"/>
      <path id="Path_10986" data-name="Path 10986" class="cls-10" d="M208,276.147a6.383,6.383,0,0,0,2.885,5l2.352,1.332a6.462,6.462,0,0,0,5.277.227c-1.332.52-2.392-.247-2.392-1.892V146.878a5.863,5.863,0,0,1,.846-2.845l-8.121-4.664a5.936,5.936,0,0,0-.846,2.818Z" transform="translate(-205.989 -103.923)"/>
      <path id="Path_10987" data-name="Path 10987" class="cls-5" d="M226.012,154.376,279.4,123.563c.959-.546,1.732-.1,1.732,1v99.148a3.817,3.817,0,0,1-1.732,3l-53.365,30.813c-.959.553-1.732.107-1.732-1V157.374A3.824,3.824,0,0,1,226.012,154.376Z" transform="translate(-211.429 -98.569)"/>
      <path id="Path_10988" data-name="Path 10988" class="cls-9" d="M266.413,126.222a2.252,2.252,0,0,0-1.013,1.759c0,.666.453.913,1.013.586a2.232,2.232,0,0,0,1.013-1.759C267.425,126.162,266.972,125.9,266.413,126.222Z" transform="translate(-225.147 -99.489)"/>
      <path id="Path_10989" data-name="Path 10989" class="cls-9" d="M264.917,308.466a8.861,8.861,0,0,0-4,6.942c0,2.552,1.792,3.591,4,2.312a8.867,8.867,0,0,0,4-6.942C268.928,308.226,267.129,307.186,264.917,308.466Z" transform="translate(-223.652 -160.179)"/>
      <path id="Path_10990" data-name="Path 10990" class="cls-9" d="M251.529,141.632a4.484,4.484,0,0,0-2,3.518c0,1.292.906,1.819,2,1.173a4.484,4.484,0,0,0,2.032-3.518C253.561,141.512,252.655,140.985,251.529,141.632Z" transform="translate(-219.851 -104.585)"/>
      <path id="Path_10991" data-name="Path 10991" class="cls-9" d="M260,135.946c0,.866.666,1.193,1.446.733l13.325-7.708a3.091,3.091,0,0,0,1.446-2.4c0-.859-.666-1.186-1.446-.726l-13.325,7.708A3.091,3.091,0,0,0,260,135.946Z" transform="translate(-223.345 -99.339)"/>
      <path id="Path_10992" data-name="Path 10992" class="cls-9" d="M213.949,176.26a3.591,3.591,0,0,1,1.626,2.811c0,1.039-.726,1.459-1.626.939a3.6,3.6,0,0,1-1.619-2.812C212.33,176.167,213.056,175.747,213.949,176.26Z" transform="translate(-207.434 -116.163)"/>
      <path id="Path_10993" data-name="Path 10993" class="cls-9" d="M213.949,195.038a3.591,3.591,0,0,1,1.626,2.811c0,1.033-.726,1.452-1.626.939a3.6,3.6,0,0,1-1.619-2.811C212.33,194.938,213.056,194.519,213.949,195.038Z" transform="translate(-207.434 -122.429)"/>
      <path id="Path_10994" data-name="Path 10994" class="cls-8" d="M213.186,176.643a3.591,3.591,0,0,1,1.626,2.811c0,1.033-.726,1.452-1.626.939a3.591,3.591,0,0,1-1.626-2.811C211.567,176.543,212.293,176.143,213.186,176.643Z" transform="translate(-207.177 -116.292)"/>
      <path id="Path_10995" data-name="Path 10995" class="cls-8" d="M213.186,195.41a3.591,3.591,0,0,1,1.626,2.818c0,1.033-.726,1.452-1.626.933a3.571,3.571,0,0,1-1.626-2.811C211.567,195.317,212.293,194.9,213.186,195.41Z" transform="translate(-207.177 -122.555)"/>
      <path id="Path_10996" data-name="Path 10996" class="cls-5" d="M297.349,129.27c0-1.106-.773-1.552-1.732-1l-6.389,3.684-46.976,27.129a3.817,3.817,0,0,0-1.732,3V261.2c0,1.106.773,1.552,1.732,1l47-27.136,6.369-3.678a3.817,3.817,0,0,0,1.732-3Z" transform="translate(-216.843 -100.139)"/>
      <path id="Path_10997" data-name="Path 10997" class="cls-3" d="M297.679,128.925a1.712,1.712,0,0,0-2.732-1.579l-6.1,3.524h0l-47.269,27.315a4.437,4.437,0,0,0-2.065,3.578v99.095a1.845,1.845,0,0,0,.839,1.7,1.526,1.526,0,0,0,.786.207,2.279,2.279,0,0,0,1.106-.326l47.3-27.315h0l6.083-3.511a4.5,4.5,0,0,0,2.065-3.578Zm-8.814,105.058h0l-.546.32h0l-46.709,26.969a.666.666,0,0,1-.56.12c-.087-.053-.173-.24-.173-.546V161.737a3.2,3.2,0,0,1,1.4-2.425l46.663-26.982h0l6.662-3.857a.666.666,0,0,1,.56-.12c.087.053.173.24.173.546v99.148a3.2,3.2,0,0,1-1.4,2.425l-6.083,3.511Z" transform="translate(-216.507 -99.794)"/>
      <path id="Path_10998" data-name="Path 10998" class="cls-3" d="M277.746,163.718c6-3.451,10.826-.666,10.826,6.256s-4.85,15.323-10.826,18.748-10.826.666-10.826-6.249S271.77,167.176,277.746,163.718Z" transform="translate(-225.655 -111.556)"/>
      <path id="Path_10999" data-name="Path 10999" class="cls-3" d="M281.411,172.379c1.939-1.119,3.511-.213,3.511,2a7.762,7.762,0,0,1-3.511,6.083c-1.939,1.119-3.511.213-3.511-2A7.762,7.762,0,0,1,281.411,172.379Z" transform="translate(-229.32 -114.78)"/>
      <path id="Path_11000" data-name="Path 11000" class="cls-3" d="M286.658,188.477c0-3.678-2.578-5.17-5.77-3.331l-2,1.153a12.76,12.76,0,0,0-5.77,9.993v.993c1.845.606,4.164.28,6.662-1.179a21.319,21.319,0,0,0,6.842-6.776Z" transform="translate(-227.724 -118.939)"/>
      <path id="Path_11001" data-name="Path 11001" class="cls-11" d="M281.411,172.379c1.939-1.119,3.511-.213,3.511,2a7.762,7.762,0,0,1-3.511,6.083c-1.939,1.119-3.511.213-3.511-2A7.762,7.762,0,0,1,281.411,172.379Z" transform="translate(-229.32 -114.78)"/>
      <path id="Path_11002" data-name="Path 11002" class="cls-11" d="M286.658,188.477c0-3.678-2.578-5.17-5.77-3.331l-2,1.153a12.76,12.76,0,0,0-5.77,9.993v.993c1.845.606,4.164.28,6.662-1.179a21.319,21.319,0,0,0,6.842-6.776Z" transform="translate(-227.724 -118.939)"/>
      <path id="Path_11003" data-name="Path 11003" class="cls-3" d="M251.153,220.732l13.931-8.041c.666-.366,1.153-.073,1.153.666v.46a2.545,2.545,0,0,1-1.153,2l-13.931,8.041c-.633.366-1.153.067-1.153-.666v-.46A2.552,2.552,0,0,1,251.153,220.732Z" transform="translate(-220.007 -128.343)"/>
      <path id="Path_11004" data-name="Path 11004" class="cls-12" d="M251.153,220.732l13.931-8.041c.666-.366,1.153-.073,1.153.666v.46a2.545,2.545,0,0,1-1.153,2l-13.931,8.041c-.633.366-1.153.067-1.153-.666v-.46A2.552,2.552,0,0,1,251.153,220.732Z" transform="translate(-220.007 -128.343)"/>
      <path id="Path_11005" data-name="Path 11005" class="cls-3" d="M250.58,227.18l42.146-24.331c.313-.187.573-.04.573.333V208.1a1.292,1.292,0,0,1-.573,1L250.58,233.429c-.32.187-.58.033-.58-.333V228.18a1.279,1.279,0,0,1,.58-1Z" transform="translate(-220.007 -125.083)"/>
      <path id="Path_11006" data-name="Path 11006" class="cls-13" d="M250.58,227.18l42.146-24.331c.313-.187.573-.04.573.333V208.1a1.292,1.292,0,0,1-.573,1L250.58,233.429c-.32.187-.58.033-.58-.333V228.18a1.279,1.279,0,0,1,.58-1Z" transform="translate(-220.007 -125.083)"/>
      <path id="Path_11007" data-name="Path 11007" class="cls-3" d="M251.153,253.563l13.931-8.041c.666-.366,1.153-.067,1.153.666v.46a2.538,2.538,0,0,1-1.153,2l-13.931,8.041c-.633.373-1.153.073-1.153-.666v-.46A2.565,2.565,0,0,1,251.153,253.563Z" transform="translate(-220.007 -139.301)"/>
      <path id="Path_11008" data-name="Path 11008" class="cls-12" d="M251.153,253.563l13.931-8.041c.666-.366,1.153-.067,1.153.666v.46a2.538,2.538,0,0,1-1.153,2l-13.931,8.041c-.633.373-1.153.073-1.153-.666v-.46A2.565,2.565,0,0,1,251.153,253.563Z" transform="translate(-220.007 -139.301)"/>
      <path id="Path_11009" data-name="Path 11009" class="cls-3" d="M250.58,260.011l42.146-24.331c.313-.187.573-.033.573.333v4.917a1.292,1.292,0,0,1-.573,1L250.58,266.26c-.32.187-.58.04-.58-.333V261.01a1.279,1.279,0,0,1,.58-1Z" transform="translate(-220.007 -136.042)"/>
      <path id="Path_11010" data-name="Path 11010" class="cls-13" d="M250.58,260.011l42.146-24.331c.313-.187.573-.033.573.333v4.917a1.292,1.292,0,0,1-.573,1L250.58,266.26c-.32.187-.58.04-.58-.333V261.01a1.279,1.279,0,0,1,.58-1Z" transform="translate(-220.007 -136.042)"/>
      <path id="Path_11011" data-name="Path 11011" class="cls-3" d="M275.523,271.54l16.656-9.6c.666-.373,1.159-.073,1.159.666v5.143a2.545,2.545,0,0,1-1.159,2l-16.656,9.607c-.666.366-1.153.067-1.153-.666v-5.15A2.572,2.572,0,0,1,275.523,271.54Z" transform="translate(-228.141 -144.779)"/>
      <path id="Path_11012" data-name="Path 11012" class="cls-12" d="M275.523,271.54l16.656-9.6c.666-.373,1.159-.073,1.159.666v5.143a2.545,2.545,0,0,1-1.159,2l-16.656,9.607c-.666.366-1.153.067-1.153-.666v-5.15A2.572,2.572,0,0,1,275.523,271.54Z" transform="translate(-228.141 -144.779)"/>
    </g>
    <g id="freepik--Character--inject-3" transform="translate(231.001 157.002)">
      <path id="Path_11013" data-name="Path 11013" class="cls-14" d="M326.816,232.557s-8.181-11.286-8.661-12.658a6.829,6.829,0,0,1,.12-3.218c.12-.7.227-2.259.346-2.665.2-.759-.78-.606-1.333.087s-.739,2.079-1.026,2.305-2.465-2.951-3.6-4.417-1.852-2.358-2.552-1.812c-.5.393-.127,1.246.7,2.5a22.5,22.5,0,0,1,1.332,2.1c.127.273-.553.293-.919.859-.286.44,0,1.153-.4,1.492a1.259,1.259,0,0,0-.32,1.646,10.886,10.886,0,0,0,2.818,2.985,6.735,6.735,0,0,1,2.445,2.3c.726,1.153,7.242,12.925,7.682,13.631s1.286,2.145,2.572,2.185,11.812-9.021,12.352-9.474c1.732-1.446,2.285-1.652,2.578-.353a12.833,12.833,0,0,1,.226,1.4c.207,1.652,1.332,7.555,1.332,7.555s5.33,2.578,9.707,1.332,5.856-3.1,5.856-3.1l-2.192-3.571c.593-1.472,3.331-7.442,4.217-11.619l-13.724-2.219c-.28-.06-.733-.173-1.332-.326-.753-.2-2.665-.859-4.111.406-4.717,4.111-14.1,12.658-14.1,12.658" transform="translate(-309.881 -198.352)"/>
      <path id="Path_11014" data-name="Path 11014" class="cls-9" d="M374.908,347.737l-2.458,3.418a8.168,8.168,0,0,0,3.571.766c2.205.08,2.811-.666,2.891-.813.373-.8-.207-2.238-.366-3.478Z" transform="translate(-330.765 -244.283)"/>
      <path id="Path_11015" data-name="Path 11015" class="cls-9" d="M368.482,350.216s-2.985-.193-5.043-.446-3.691.746-3.211,1.592,1.619,1.552,3.391,2.145c1.512.513,3.331.879,4.9,1.332s2.665,1.046,3.578.726c1.019-.353,1.459-.76,1.372-1.506a32.343,32.343,0,0,0-.826-3.145Z" transform="translate(-326.657 -244.984)"/>
      <path id="Path_11016" data-name="Path 11016" class="cls-15" d="M380.1,342.456s-.373,3.1-.4,3.771-3.031.879-3.6-.34l-.093-3.8Z" transform="translate(-331.95 -242.434)"/>
      <path id="Path_11017" data-name="Path 11017" class="cls-14" d="M373.283,345.5l1.073,4.717s.1.573-2.352.939-6.3-1.286-6.962-1.619-.733-1.006,1.679-.873,3.265.14,3.265.14l-.786-2.085Z" transform="translate(-328.16 -243.573)"/>
      <path id="Path_11018" data-name="Path 11018" class="cls-15" d="M383.661,227.763l1.7-.473s3.551,11.239,3.944,12.325.839,2.232.073,3.571c-.913,1.592-5.716,7.995-5.716,7.995L380.61,248.2l3.464-6.342-3.065-6.2Z" transform="translate(-333.489 -204.117)"/>
      <path id="Path_11019" data-name="Path 11019" class="cls-9" d="M358.705,201.557a5.01,5.01,0,0,1,.073-4.844c1.692-3.138,5.463-4.664,9.953-4.084a8.5,8.5,0,0,1,5.869,4.577c1.479,2.858,1.619,8.614,2,10.793Z" transform="translate(-325.981 -192.508)"/>
      <path id="Path_11020" data-name="Path 11020" class="cls-14" d="M358.368,207.94s-1.066,2.032-.879,2.219a2.792,2.792,0,0,0,.893.333Z" transform="translate(-325.764 -197.659)"/>
      <path id="Path_11021" data-name="Path 11021" class="cls-14" d="M362.05,197.886c-1.159.753-3.158,2.139-3.245,6.7-.093,4.664.573,6.2,1.266,6.742.466.366,3.2.18,4.377-.093s4.55-1.945,5.77-4.484c1.432-2.985,1.139-7.329-.986-8.661a7.422,7.422,0,0,0-7.182-.207Z" transform="translate(-326.208 -194.027)"/>
      <path id="Path_11022" data-name="Path 11022" class="cls-3" d="M378.812,250.82c2.052,3.2,4,6,4.424,9.607.879,7.588-2,16.263-2.618,21.879a10.12,10.12,0,0,1,1.932,5.476c0,2.325-3.738,24.211-3.738,24.211s-2.718.826-4.1-.366l-2.565-40.26,1.332-4.9Z" transform="translate(-330.665 -211.971)"/>
      <path id="Path_11023" data-name="Path 11023" class="cls-4" d="M378.812,250.82c2.052,3.2,4,6,4.424,9.607.879,7.588-2,16.263-2.618,21.879a10.12,10.12,0,0,1,1.932,5.476c0,2.325-3.738,24.211-3.738,24.211s-2.718.826-4.1-.366l-2.565-40.26,1.332-4.9Z" transform="translate(-330.665 -211.971)"/>
      <path id="Path_11024" data-name="Path 11024" class="cls-3" d="M372.15,277.745l1.332-4.9a32.732,32.732,0,0,0,7.329-2.911,9.859,9.859,0,0,1-5.37,3.911l-2.059,6.3-.173,14.424Z" transform="translate(-330.665 -218.349)"/>
      <path id="Path_11025" data-name="Path 11025" class="cls-16" d="M372.15,277.745l1.332-4.9a32.732,32.732,0,0,0,7.329-2.911,9.859,9.859,0,0,1-5.37,3.911l-2.059,6.3-.173,14.424Z" transform="translate(-330.665 -218.349)"/>
      <path id="Path_11026" data-name="Path 11026" class="cls-3" d="M372.277,250.82c1.1,1.8,3.724,4.863,3.165,7.815-.666,3.571-2.6,6.083-8.474,7.828l-5.516,19.987s2.871,2.665,3.751,5.243,4.051,22.219,4.051,22.219-.986,1.606-4.084,1.219c0,0-10.8-24.65-11.559-26.256a8,8,0,0,1-.913-5.363c.34-2.585,4-30.88,4-30.88Z" transform="translate(-324.129 -211.971)"/>
      <path id="Path_11027" data-name="Path 11027" class="cls-4" d="M372.277,250.82c1.1,1.8,3.724,4.863,3.165,7.815-.666,3.571-2.6,6.083-8.474,7.828l-5.516,19.987s2.871,2.665,3.751,5.243,4.051,22.219,4.051,22.219-.986,1.606-4.084,1.219c0,0-10.8-24.65-11.559-26.256a8,8,0,0,1-.913-5.363c.34-2.585,4-30.88,4-30.88Z" transform="translate(-324.129 -211.971)"/>
      <path id="Path_11028" data-name="Path 11028" class="cls-3" d="M375.587,226.725l-13.724-2.219c-.28-.06-.733-.173-1.332-.326h0s-.586,8.608-4.111,10.58h0c.087.413.16.873.227,1.4.207,1.652,1.332,7.555,1.332,7.555s5.33,2.578,9.707,1.332,5.856-3.1,5.856-3.1l-2.192-3.571C371.963,236.885,374.721,230.916,375.587,226.725Z" transform="translate(-325.415 -203.079)"/>
      <path id="Path_11029" data-name="Path 11029" class="cls-11" d="M375.587,226.725l-13.724-2.219c-.28-.06-.733-.173-1.332-.326h0s-.586,8.608-4.111,10.58h0c.087.413.16.873.227,1.4.207,1.652,1.332,7.555,1.332,7.555s5.33,2.578,9.707,1.332,5.856-3.1,5.856-3.1l-2.192-3.571C371.963,236.885,374.721,230.916,375.587,226.725Z" transform="translate(-325.415 -203.079)"/>
      <path id="Path_11030" data-name="Path 11030" class="cls-3" d="M376.9,243.35a38.737,38.737,0,0,1-5.71,2.818,10.726,10.726,0,0,0,5.11-1.412Z" transform="translate(-330.344 -209.478)"/>
      <path id="Path_11031" data-name="Path 11031" class="cls-9" d="M363.1,197.493s-.666,4.33.906,6.875c0,0,.586-1.726,2.045-1.4s1.539,2.252.513,3.331a2.125,2.125,0,0,1-2.159.666s-.233,3.131-.36,5.756-.819,8.348,2.132,10.66,10.36,3.125,13.831-1.726c1.932-2.7-.633-7.468-1.825-12.818-1.1-4.917-1.719-12.205-6.935-13.378A8.648,8.648,0,0,0,363.1,197.493Z" transform="translate(-327.597 -193.408)"/>
    </g>
    <g id="freepik--Cloud--inject-3" transform="translate(261.447 97.368)">
      <path id="Path_11032" data-name="Path 11032" class="cls-2" d="M379.777,107.55l-1.1.666a5.8,5.8,0,0,0,.153-1.193c0-2.232-1.566-3.131-3.5-2a6.169,6.169,0,0,0-1.552,1.332h0c0-3-2.105-4.217-4.7-2.718a10.4,10.4,0,0,0-4.7,8.148v.446a2.852,2.852,0,0,0-1.912.44,7.728,7.728,0,0,0-3.5,6.056,4.064,4.064,0,0,0,.087.839l-.586.34c-1.592.919-2.885,2.712-2.885,4s1.293,1.592,2.885.666l21.319-12.292c1.592-.919,2.885-2.712,2.885-4S381.37,106.623,379.777,107.55Z" transform="translate(-355.58 -102.997)"/>
    </g>
  </g>
</svg>
